<svg xmlns="http://www.w3.org/2000/svg" viewBox="0 0 24 24" fill="#000000">
  <path d="M12.525.02c1.31-.02 2.61-.01 3.91-.02.08 1.53.63 3.09 1.75 4.17 1.12 1.11 2.7 1.62 4.24 1.79v4.03c-1.44-.05-2.89-.35-4.2-.97-.57-.26-1.1-.59-1.62-.93-.01 2.92.01 5.84-.02 8.75-.08 1.4-.54 2.79-1.35 3.94-1.31 1.92-3.58 3.17-5.91 3.21-1.49.04-3-.9-3.8-2.23-.56-1.02-.48-2.28.23-3.21.84-1.1 2.27-1.73 3.63-1.56.98.15 1.89.73 2.48 1.53.26-.47.48-.97.66-1.49.17-.52.26-1.06.28-1.61.01-2.17.01-4.34 0-6.5-.63.37-1.15.94-1.5 1.61-.49.87-.68 1.91-.54 2.9h-4.02c-.03-1.2.15-2.39.57-3.51.39-1.02 1.01-1.93 1.77-2.65.75-.72 1.66-1.28 2.65-1.58.52-.15 1.05-.25 1.59-.29.01-1.3.01-2.61.01-3.92z"/>
</svg>
